<?xml version="1.0" encoding="UTF-8" standalone="no"?>
<!DOCTYPE svg PUBLIC "-//W3C//DTD SVG 1.1//EN" "http://www.w3.org/Graphics/SVG/1.1/DTD/svg11.dtd">
<svg width="100%" height="100%" viewBox="0 0 6714 4568" version="1.1" xmlns="http://www.w3.org/2000/svg" xmlns:xlink="http://www.w3.org/1999/xlink" xml:space="preserve" xmlns:serif="http://www.serif.com/" style="fill-rule:evenodd;clip-rule:evenodd;stroke-linejoin:round;stroke-miterlimit:2;">
    <g id="Page-1" serif:id="Page 1" transform="matrix(4.166667,0,0,4.166667,0,0)">
        <rect x="0" y="0" width="1611.3" height="1096.26" style="fill:none;"/>
        <g id="Layer-1" serif:id="Layer 1">
            <g transform="matrix(1,0,0,1,489.9527,1052.2433)">
                <path d="M0,-2.374L3.901,-5.983L17.251,16.427L11.194,16.427L0,-2.374ZM-5.863,0.97L9.692,-18.801L15.773,-18.801L-6.59,8.384L-5.863,0.97ZM-9.739,-18.801L-4.796,-18.801L-4.796,16.427L-9.739,16.427L-9.739,-18.801Z" style="fill:rgb(10,80,116);fill-rule:nonzero;"/>
            </g>
            <g transform="matrix(-1,0,0,1,1049.859,1005.854)">
                <rect x="522.458" y="27.589" width="4.943" height="35.228" style="fill:rgb(10,80,116);"/>
            </g>
            <g transform="matrix(1,0,0,1,546.0469,1068.6476)">
                <path d="M0,-35.205L4.482,-35.205L21.709,-7.972L21.127,-7.343L21.127,-35.205L26.021,-35.205L26.021,0L21.49,0L4.313,-26.821L4.894,-27.452L4.894,0L0,0L0,-35.205Z" style="fill:rgb(10,80,116);fill-rule:nonzero;"/>
            </g>
            <g transform="matrix(1,0,0,1,614.7966,1052.4128)">
                <path d="M0,-2.712L0,3.442C0,6.059 -0.508,8.363 -1.526,10.359C-2.544,12.353 -3.986,13.897 -5.85,14.986C-7.716,16.076 -9.877,16.622 -12.332,16.622C-14.82,16.622 -17.004,16.109 -18.885,15.083C-20.768,14.057 -22.225,12.608 -23.259,10.734C-24.293,8.86 -24.809,6.688 -24.809,4.216L-24.809,-6.178C-24.809,-8.794 -24.3,-11.096 -23.283,-13.083C-22.265,-15.069 -20.824,-16.607 -18.958,-17.699C-17.092,-18.788 -14.932,-19.334 -12.478,-19.334C-10.459,-19.334 -8.597,-18.902 -6.893,-18.037C-5.189,-17.173 -3.764,-15.95 -2.617,-14.366C-1.469,-12.783 -0.694,-10.95 -0.29,-8.866L-5.645,-8.866C-5.936,-10.046 -6.429,-11.059 -7.123,-11.907C-7.818,-12.756 -8.633,-13.402 -9.57,-13.846C-10.507,-14.289 -11.476,-14.511 -12.478,-14.511C-13.931,-14.511 -15.207,-14.164 -16.306,-13.47C-17.404,-12.776 -18.252,-11.801 -18.85,-10.55C-19.447,-9.298 -19.746,-7.84 -19.746,-6.178L-19.746,4.216C-19.746,5.735 -19.44,7.063 -18.825,8.203C-18.211,9.341 -17.344,10.225 -16.221,10.855C-15.098,11.485 -13.802,11.801 -12.332,11.801C-10.878,11.801 -9.603,11.474 -8.504,10.819C-7.406,10.165 -6.558,9.216 -5.96,7.973C-5.362,6.728 -5.064,5.251 -5.064,3.539L-5.064,2.012L-12.211,2.012L-12.211,-2.712L0,-2.712Z" style="fill:rgb(10,80,116);fill-rule:nonzero;"/>
            </g>
            <g transform="matrix(1,0,0,1,637.5134,1033.5624)">
                <path d="M0,34.988C-1.518,34.664 -2.936,34.18 -4.252,33.533C-5.568,32.887 -6.8,32.079 -7.947,31.112L-4.87,27.332C-3.529,28.493 -2.052,29.366 -0.436,29.949C1.179,30.529 2.932,30.82 4.822,30.82C7.373,30.82 9.352,30.347 10.757,29.403C12.163,28.458 12.866,27.122 12.866,25.393L12.866,25.368C12.866,24.141 12.546,23.169 11.909,22.449C11.27,21.73 10.446,21.198 9.437,20.851C8.428,20.504 7.124,20.183 5.524,19.893C5.476,19.878 5.423,19.87 5.367,19.87C5.31,19.87 5.258,19.861 5.209,19.845L4.846,19.773C2.487,19.369 0.57,18.912 -0.909,18.403C-2.386,17.894 -3.65,16.966 -4.7,15.616C-5.75,14.268 -6.275,12.35 -6.275,9.862L-6.275,9.839C-6.275,7.658 -5.787,5.796 -4.809,4.254C-3.832,2.712 -2.407,1.536 -0.533,0.728C1.341,-0.08 3.594,-0.484 6.227,-0.484C7.487,-0.484 8.727,-0.345 9.945,-0.071C11.165,0.204 12.368,0.611 13.556,1.152C14.743,1.694 15.91,2.377 17.057,3.199L14.247,7.124C12.906,6.139 11.569,5.4 10.237,4.908C8.904,4.416 7.568,4.169 6.227,4.169C3.82,4.169 1.951,4.649 0.618,5.61C-0.714,6.572 -1.381,7.933 -1.381,9.692L-1.381,9.717C-1.381,10.929 -1.038,11.881 -0.351,12.576C0.335,13.272 1.191,13.784 2.217,14.114C3.242,14.446 4.668,14.79 6.493,15.144C6.558,15.16 6.618,15.172 6.675,15.181C6.732,15.189 6.792,15.201 6.857,15.217C6.938,15.234 7.026,15.249 7.124,15.266C7.221,15.282 7.309,15.297 7.39,15.314C9.522,15.75 11.303,16.267 12.732,16.864C14.161,17.462 15.357,18.428 16.318,19.759C17.279,21.093 17.759,22.913 17.759,25.223L17.759,25.271C17.759,27.42 17.251,29.258 16.233,30.785C15.215,32.31 13.742,33.473 11.811,34.272C9.881,35.071 7.551,35.472 4.822,35.472C3.125,35.472 1.519,35.31 0,34.988" style="fill:rgb(10,80,116);fill-rule:nonzero;"/>
            </g>
            <g transform="matrix(1,0,0,1,0,1005.853)">
                <path d="M677.335,30.473L682.278,30.473L682.278,62.817L677.335,62.817L677.335,30.473ZM667.377,27.59L692.236,27.59L692.236,32.291L667.377,32.291L667.377,27.59Z" style="fill:rgb(10,80,116);fill-rule:nonzero;"/>
            </g>
            <g transform="matrix(1,0,0,1,721.5301,1038.9289)">
                <path d="M0,24.255C1.106,23.601 1.962,22.671 2.568,21.468C3.174,20.265 3.477,18.872 3.477,17.288L3.477,6.967C3.477,5.385 3.174,3.992 2.568,2.789C1.962,1.586 1.106,0.656 0,0.002C-1.106,-0.652 -2.386,-0.979 -3.84,-0.979C-5.294,-0.979 -6.574,-0.652 -7.68,0.002C-8.787,0.656 -9.643,1.586 -10.248,2.789C-10.854,3.992 -11.157,5.385 -11.157,6.967L-11.157,17.288C-11.157,18.872 -10.854,20.265 -10.248,21.468C-9.643,22.671 -8.787,23.601 -7.68,24.255C-6.574,24.909 -5.294,25.236 -3.84,25.236C-2.386,25.236 -1.106,24.909 0,24.255M-10.333,28.495C-12.207,27.421 -13.657,25.902 -14.682,23.94C-15.708,21.977 -16.221,19.703 -16.221,17.12L-16.221,7.137C-16.221,4.553 -15.708,2.28 -14.682,0.317C-13.657,-1.647 -12.207,-3.163 -10.333,-4.238C-8.459,-5.313 -6.295,-5.85 -3.84,-5.85C-1.385,-5.85 0.779,-5.313 2.653,-4.238C4.526,-3.163 5.976,-1.647 7.002,0.317C8.027,2.28 8.54,4.553 8.54,7.137L8.54,17.12C8.54,19.703 8.027,21.977 7.002,23.94C5.976,25.902 4.526,27.421 2.653,28.495C0.779,29.568 -1.385,30.105 -3.84,30.105C-6.295,30.105 -8.459,29.568 -10.333,28.495" style="fill:rgb(10,80,116);fill-rule:nonzero;"/>
            </g>
            <g transform="matrix(1,0,0,1,747.5059,1068.6476)">
                <path d="M0,-35.205L4.482,-35.205L21.709,-7.972L21.127,-7.343L21.127,-35.205L26.021,-35.205L26.021,0L21.49,0L4.313,-26.821L4.894,-27.452L4.894,0L0,0L0,-35.205Z" style="fill:rgb(10,80,116);fill-rule:nonzero;"/>
            </g>
            <g transform="matrix(-1,0,0,1,1646.157,1015.835)">
                <rect x="814.938" y="37.862" width="16.281" height="4.701" style="fill:rgb(10,80,116);"/>
            </g>
            <g transform="matrix(1,0,0,1,872.5809,1034.5803)">
                <path d="M0,33.316C-1.567,32.557 -2.842,31.49 -3.828,30.117L0.219,27.21C0.671,28.001 1.325,28.615 2.181,29.051C3.037,29.488 4.03,29.705 5.161,29.705C7.084,29.705 8.574,29.108 9.632,27.913C10.69,26.718 11.219,25.038 11.219,22.873L11.219,-1.138L16.161,-1.138L16.161,22.897C16.161,25.336 15.733,27.42 14.876,29.148C14.02,30.876 12.769,32.193 11.122,33.097C9.473,34.002 7.487,34.454 5.161,34.454C3.287,34.454 1.567,34.075 0,33.316" style="fill:rgb(10,80,116);fill-rule:nonzero;"/>
            </g>
            <g transform="matrix(1,0,0,1,0,1005.854)">
                <path d="M908.77,50.388L927.304,50.388L927.304,55.089L908.77,55.089L908.77,50.388ZM915.772,27.589L919.987,27.589L932.975,62.817L927.643,62.817L917.88,34.397L908.116,62.817L902.786,62.817L915.772,27.589Z" style="fill:rgb(10,80,116);fill-rule:nonzero;"/>
            </g>
            <g transform="matrix(1,0,0,1,973.5474,1068.6706)">
                <path d="M0,-35.228L4.626,-35.228L4.626,0L-0.194,0L-0.194,-26.384L0.047,-24.834L-8.627,-4.894L-12.065,-4.894L-20.74,-24.35L-20.498,-26.384L-20.498,0L-25.319,0L-25.319,-35.228L-20.692,-35.228L-10.346,-11.968L0,-35.228Z" style="fill:rgb(10,80,116);fill-rule:nonzero;"/>
            </g>
            <g transform="matrix(1,0,0,1,0,1005.854)">
                <path d="M998.928,50.388L1017.462,50.388L1017.462,55.089L998.928,55.089L998.928,50.388ZM1005.93,27.589L1010.145,27.589L1023.133,62.817L1017.803,62.817L1008.038,34.397L998.274,62.817L992.944,62.817L1005.93,27.589Z" style="fill:rgb(10,80,116);fill-rule:nonzero;"/>
            </g>
            <g transform="matrix(-1,0,0,1,2081.715,1005.854)">
                <rect x="1038.386" y="27.589" width="4.943" height="35.228" style="fill:rgb(10,80,116);"/>
            </g>
            <g transform="matrix(1,0,0,1,1067.0764,1034.7027)">
                <path d="M0,32.708C-1.851,31.627 -3.284,30.091 -4.3,28.106C-5.318,26.118 -5.827,23.817 -5.827,21.201L-5.827,11.532C-5.827,8.916 -5.318,6.615 -4.3,4.627C-3.284,2.641 -1.851,1.103 0,0.011C1.849,-1.078 3.993,-1.624 6.433,-1.624C8.452,-1.624 10.309,-1.192 12.005,-0.327C13.7,0.537 15.119,1.76 16.257,3.344C17.396,4.927 18.167,6.76 18.571,8.844L13.506,8.844C13.199,7.746 12.687,6.765 11.968,5.9C11.25,5.036 10.406,4.37 9.437,3.901C8.467,3.432 7.466,3.199 6.433,3.199C4.995,3.199 3.735,3.546 2.653,4.24C1.57,4.934 0.731,5.909 0.134,7.16C-0.466,8.412 -0.764,9.87 -0.764,11.532L-0.764,21.201C-0.764,22.848 -0.466,24.301 0.134,25.561C0.731,26.821 1.57,27.794 2.653,28.481C3.735,29.167 4.995,29.511 6.433,29.511C7.483,29.511 8.487,29.292 9.448,28.857C10.409,28.419 11.25,27.774 11.968,26.918C12.687,26.062 13.199,25.044 13.506,23.866L18.571,23.866C18.167,25.948 17.391,27.782 16.245,29.366C15.099,30.948 13.677,32.172 11.981,33.035C10.284,33.899 8.435,34.332 6.433,34.332C3.993,34.332 1.849,33.791 0,32.708" style="fill:rgb(10,80,116);fill-rule:nonzero;"/>
            </g>
            <g transform="matrix(1,0,0,1,0,1005.854)">
                <path d="M1103.736,50.388L1122.27,50.388L1122.27,55.089L1103.736,55.089L1103.736,50.388ZM1110.738,27.589L1114.953,27.589L1127.941,62.817L1122.611,62.817L1112.846,34.397L1103.082,62.817L1097.752,62.817L1110.738,27.589Z" style="fill:rgb(10,80,116);fill-rule:nonzero;"/>
            </g>
            <g transform="matrix(1,0,0,1,1431.4512,917.2564)">
                <path d="M0,-82.061L0.674,-82.061L40.526,0L21.666,0L11.113,-23.348C6.96,-32.666 3.254,-40.636 0.449,-48.497C-1.909,-42.769 -6.849,-31.318 -10.441,-23.348L-20.994,0L-39.741,0L0,-82.061Z" style="fill:rgb(10,80,116);fill-rule:nonzero;"/>
            </g>
            <g transform="matrix(1,0,0,1,95.9488,833.6207)">
                <path d="M0,83.975C-25.594,83.975 -43.445,65.675 -43.445,41.988C-43.445,18.413 -25.371,0 -0.336,0C11.676,0 20.433,3.368 25.035,5.501L25.035,21.441C19.759,18.972 11.676,15.831 0.787,15.831C-15.94,15.831 -26.043,27.618 -26.043,41.988C-26.043,56.58 -15.94,68.258 0,68.258C3.93,68.258 8.197,67.582 11.002,66.683L11.002,45.129L27.505,45.129L27.505,77.798C20.32,81.502 9.88,83.975 0,83.975" style="fill:rgb(10,80,116);fill-rule:nonzero;"/>
            </g>
            <g transform="matrix(1,0,0,1,181.2713,901.5424)">
                <path d="M0,-51.868L0,-27.731L12.35,-27.731C19.984,-27.731 25.26,-31.548 25.26,-39.741C25.26,-47.824 19.759,-51.868 11.9,-51.868L0,-51.868ZM11.451,-66.347C30.198,-66.347 42.659,-57.033 42.659,-39.741C42.659,-27.954 36.037,-20.21 27.28,-16.729L44.232,14.479L25.934,14.479L11.676,-13.811L0,-13.811L0,14.479L-16.95,14.479L-16.95,-66.347L11.451,-66.347Z" style="fill:rgb(10,80,116);fill-rule:nonzero;"/>
            </g>
            <g transform="matrix(1,0,0,1,301.7325,849.452)">
                <path d="M0,52.313C14.594,52.313 24.922,40.639 24.922,26.156C24.922,11.787 14.594,0 0,0C-14.594,0 -24.922,11.787 -24.922,26.156C-24.922,40.639 -14.594,52.313 0,52.313M0,-15.831C24.36,-15.831 42.321,2.805 42.321,26.156C42.321,49.731 24.473,68.144 0,68.144C-24.473,68.144 -42.323,49.731 -42.323,26.156C-42.323,2.918 -24.473,-15.831 0,-15.831" style="fill:rgb(10,80,116);fill-rule:nonzero;"/>
            </g>
            <g transform="matrix(1,0,0,1,379.7551,838.2266)">
                <path d="M0,74.763L0,58.151C5.614,61.069 13.022,63.538 20.32,63.988C22.902,64.101 25.371,63.988 27.505,63.538C33.679,62.64 37.272,60.284 37.272,56.354C37.272,50.966 32.445,48.157 21.33,44.117C7.185,38.952 -1.123,33.002 -1.123,18.969C-1.123,4.599 10.777,-4.606 28.178,-4.606C36.26,-4.606 44.232,-2.808 49.284,-0.562L49.284,15.378C44.568,12.573 36.934,10.44 29.524,10.44C21.218,10.44 15.829,13.694 15.829,18.859C15.829,23.575 20.206,26.829 31.208,30.982C45.353,36.483 54.11,42.433 54.11,56.018C54.11,70.61 43.109,79.369 24.023,79.369C14.819,79.369 5.837,77.345 0,74.763" style="fill:rgb(10,80,116);fill-rule:nonzero;"/>
            </g>
            <g transform="matrix(1,0,0,1,502.9081,835.1949)">
                <path d="M0,82.061L-0.674,82.061L-40.526,0L-21.666,0L-11.113,23.348C-6.96,32.666 -3.254,40.636 -0.449,48.497C1.909,42.769 6.849,31.318 10.441,23.348L20.994,0L39.741,0L0,82.061Z" style="fill:rgb(10,80,116);fill-rule:nonzero;"/>
            </g>
            <g transform="matrix(1,0,0,1,577.0042,835.1953)">
                <path d="M0,80.826L0,0L51.977,0L51.977,14.479L17.288,14.479L17.288,32.892L46.701,32.892L46.701,46.813L17.288,46.813L17.288,66.347L53.661,66.347L53.661,80.826L0,80.826Z" style="fill:rgb(10,80,116);fill-rule:nonzero;"/>
            </g>
            <g transform="matrix(1,0,0,1,736.5323,833.9569)">
                <path d="M0,83.299L-44.345,40.753L-49.621,36.151L-49.621,82.064L-66.572,82.064L-66.572,0L-65.899,0L-21.668,42.55L-16.503,47.152L-16.503,1.238L0.561,1.238L0.561,83.299L0,83.299Z" style="fill:rgb(10,80,116);fill-rule:nonzero;"/>
            </g>
            <g transform="matrix(1,0,0,1,818.7099,849.452)">
                <path d="M0,52.313C14.594,52.313 24.922,40.639 24.922,26.156C24.922,11.787 14.594,0 0,0C-14.594,0 -24.922,11.787 -24.922,26.156C-24.922,40.639 -14.594,52.313 0,52.313M0,-15.831C24.359,-15.831 42.321,2.805 42.321,26.156C42.321,49.731 24.473,68.144 0,68.144C-24.473,68.144 -42.323,49.731 -42.323,26.156C-42.323,2.918 -24.473,-15.831 0,-15.831" style="fill:rgb(10,80,116);fill-rule:nonzero;"/>
            </g>
            <g transform="matrix(1,0,0,1,917.3901,901.5424)">
                <path d="M0,-51.868L0,-27.731L12.35,-27.731C19.984,-27.731 25.262,-31.548 25.262,-39.741C25.262,-47.824 19.761,-51.868 11.9,-51.868L0,-51.868ZM11.451,-66.347C30.2,-66.347 42.659,-57.033 42.659,-39.741C42.659,-27.954 36.037,-20.21 27.282,-16.729L44.234,14.479L25.934,14.479L11.678,-13.811L0,-13.811L0,14.479L-16.948,14.479L-16.948,-66.347L11.451,-66.347Z" style="fill:rgb(10,80,116);fill-rule:nonzero;"/>
            </g>
            <g transform="matrix(1,0,0,1,1089.4171,835.1949)">
                <path d="M0,82.061L-0.676,82.061L-40.526,0L-21.668,0L-11.115,23.348C-6.962,32.666 -3.255,40.636 -0.449,48.497C1.907,42.769 6.849,31.318 10.439,23.348L20.992,0L39.741,0L0,82.061Z" style="fill:rgb(10,80,116);fill-rule:nonzero;"/>
            </g>
            <g transform="matrix(1,0,0,1,0,654.956)">
                <rect x="1163.511" y="180.239" width="17.288" height="80.826" style="fill:rgb(10,80,116);"/>
            </g>
            <g transform="matrix(1,0,0,1,1221.552,838.2266)">
                <path d="M0,74.763L0,58.151C5.614,61.069 13.022,63.538 20.32,63.988C22.902,64.101 25.371,63.988 27.505,63.538C33.677,62.64 37.272,60.284 37.272,56.354C37.272,50.966 32.443,48.157 21.332,44.117C7.185,38.952 -1.121,33.002 -1.121,18.969C-1.121,4.599 10.779,-4.606 28.177,-4.606C36.26,-4.606 44.23,-2.808 49.282,-0.562L49.282,15.378C44.57,12.573 36.936,10.44 29.524,10.44C21.218,10.44 15.831,13.694 15.831,18.859C15.831,23.575 20.207,26.829 31.208,30.982C45.355,36.483 54.11,42.433 54.11,56.018C54.11,70.61 43.109,79.369 24.024,79.369C14.819,79.369 5.837,77.345 0,74.763" style="fill:rgb(10,80,116);fill-rule:nonzero;"/>
            </g>
            <g transform="matrix(1,0,0,1,1346.6117,901.5424)">
                <path d="M0,-51.868L0,14.479L-17.288,14.479L-17.288,-51.868L-39.854,-51.868L-39.854,-66.347L22.676,-66.347L22.676,-51.868L0,-51.868Z" style="fill:rgb(10,80,116);fill-rule:nonzero;"/>
            </g>
            <g transform="matrix(1,0,0,1,1501.5394,838.2266)">
                <path d="M0,74.763L0,58.151C5.614,61.069 13.022,63.538 20.32,63.988C22.902,64.101 25.371,63.988 27.505,63.538C33.677,62.64 37.272,60.284 37.272,56.354C37.272,50.966 32.443,48.157 21.332,44.117C7.185,38.952 -1.121,33.002 -1.121,18.969C-1.121,4.599 10.779,-4.606 28.177,-4.606C36.26,-4.606 44.23,-2.808 49.282,-0.562L49.282,15.378C44.57,12.573 36.936,10.44 29.524,10.44C21.218,10.44 15.831,13.694 15.831,18.859C15.831,23.575 20.206,26.829 31.208,30.982C45.355,36.483 54.11,42.433 54.11,56.018C54.11,70.61 43.109,79.369 24.024,79.369C14.819,79.369 5.837,77.345 0,74.763" style="fill:rgb(10,80,116);fill-rule:nonzero;"/>
            </g>
            <g transform="matrix(1,0,0,1,811.8971,316.3627)">
                <path d="M0,350.653C-4.435,291.614 4.991,243.283 45.54,205.876C82.936,171.377 122.45,139.165 159.658,104.472C196.402,70.211 231.425,34.105 265.996,0C274.807,38.046 265.802,78.205 236.961,112.33C219.614,132.854 198.901,150.945 177.889,167.882C112.651,220.463 47.859,273.288 0,350.653" style="fill:rgb(10,80,116);fill-rule:nonzero;"/>
            </g>
            <g transform="matrix(1,0,0,1,531.9833,663.2921)">
                <path d="M0,-356.678C47.498,-273.714 126.025,-228.66 189.494,-168.387C220.454,-138.986 252.955,-111.201 260.165,-66.077C263.592,-44.63 264.703,-22.812 264.321,0C211.824,-82.043 135.475,-138.125 62.304,-197.693C22.15,-230.381 -6.342,-270.5 -4.909,-325.646C-4.777,-330.722 -4.459,-335.824 -3.749,-340.845C-3.168,-344.945 -1.872,-348.944 0,-356.678" style="fill:rgb(10,80,116);fill-rule:nonzero;"/>
            </g>
            <g transform="matrix(1,0,0,1,1028.0693,529.6889)">
                <path d="M0,-285.261C10.707,-239.959 1.492,-202.604 -36.984,-172.615C-71.664,-145.585 -104.822,-116.336 -136.595,-85.917C-165.454,-58.289 -191.543,-27.767 -217.471,0C-220.127,-44.14 -208.389,-88.497 -173.314,-124.007C-148.977,-148.645 -121.488,-170.134 -96.081,-193.755C-64.037,-223.545 -32.68,-254.072 0,-285.261" style="fill:rgb(10,80,116);fill-rule:nonzero;"/>
            </g>
            <g transform="matrix(-0.800507,0.599323,0.599323,0.800507,860.990697,444.338791)">
                <path d="M107.529,-327.889C94.35,-261.45 82.362,-195.816 68.111,-130.676C54.771,-69.698 64.105,-14.806 107.529,37.001C96.04,-59.103 131.484,-144.878 146.917,-233.767C154.114,-275.223 132.806,-302.803 107.529,-327.889" style="fill:rgb(10,80,116);fill-rule:nonzero;"/>
            </g>
            <g transform="matrix(-0.84878,0.528747,0.528747,0.84878,833.781667,369.471716)">
                <path d="M60.473,-258.849C48.547,-206.961 37.101,-158.523 26.334,-109.935C15.162,-59.516 32.741,-15.906 60.473,25.741C54.995,-36.283 78.82,-91.732 96.338,-148.599C111.324,-197.251 102.853,-223.896 60.473,-258.849" style="fill:rgb(10,80,116);fill-rule:nonzero;"/>
            </g>
            <g transform="matrix(1,0,0,1,962.1553,420.2998)">
                <path d="M0,-236.281C17.317,-189.77 11.789,-162.595 -22.086,-131.5C-45.151,-110.329 -70.834,-91.872 -92.798,-69.679C-113.815,-48.441 -131.54,-23.945 -151.444,0C-153.137,-48.591 -143.521,-93.501 -108.26,-129.509C-73.385,-165.123 -37.321,-199.572 0,-236.281" style="fill:rgb(10,80,116);fill-rule:nonzero;"/>
            </g>
            <g transform="matrix(1,0,0,1,803.7153,35.1869)">
                <path d="M0,173.561C-11.62,156.998 -22.971,140.186 -34.972,123.851C-56.943,93.944 -57.078,80.592 -35.511,50.882C-23.128,33.823 -11.242,16.404 0.27,0C11.569,16.184 23.844,34.054 36.419,51.71C56.875,80.431 56.826,93.806 35.981,122.833C23.705,139.926 11.624,157.159 0,173.561" style="fill:rgb(10,80,116);fill-rule:nonzero;"/>
            </g>
            <g transform="matrix(1,0,0,1,713.8597,304.2246)">
                <path d="M0,-168.433C53.014,-122.534 87.326,-69.915 83.47,0C58.116,-26.813 31.882,-53.527 6.85,-81.323C-17.886,-108.792 -19.715,-135.178 0,-168.433" style="fill:rgb(10,80,116);fill-rule:nonzero;"/>
            </g>
            <g transform="matrix(1,0,0,1,895.1187,299.9795)">
                <path d="M0,-163.304C19.478,-124.944 14.316,-98.694 -16.091,-68.26C-38.691,-45.64 -60.336,-22.065 -81.373,0C-97.721,-39.105 -59.976,-118.837 0,-163.304" style="fill:rgb(10,80,116);fill-rule:nonzero;"/>
            </g>
        </g>
    </g>
</svg>
