<?xml version="1.0" encoding="UTF-8" standalone="no"?>
<!DOCTYPE svg PUBLIC "-//W3C//DTD SVG 1.1//EN" "http://www.w3.org/Graphics/SVG/1.1/DTD/svg11.dtd">
<svg width="100%" height="100%" viewBox="0 0 6714 1291" version="1.1" xmlns="http://www.w3.org/2000/svg" xmlns:xlink="http://www.w3.org/1999/xlink" xml:space="preserve" xmlns:serif="http://www.serif.com/" style="fill-rule:evenodd;clip-rule:evenodd;stroke-linejoin:round;stroke-miterlimit:2;">
    <g id="Page-1" serif:id="Page 1" transform="matrix(4.166667,0,0,4.166667,0,0)">
        <rect x="0" y="0" width="1611.3" height="309.721" style="fill:none;"/>
        <g id="Layer-1" serif:id="Layer 1">
            <g transform="matrix(1,0,0,1,887.3071,257.6229)">
                <path d="M0,-2.038L3.348,-5.135L14.803,14.096L9.605,14.096L0,-2.038ZM-5.031,0.832L8.317,-16.134L13.535,-16.134L-5.655,7.194L-5.031,0.832ZM-8.357,-16.134L-4.116,-16.134L-4.116,14.095L-8.357,14.095L-8.357,-16.134Z" style="fill:rgb(35,31,32);fill-rule:nonzero;"/>
            </g>
            <g transform="matrix(-1,0,0,1,1834.643,203.486)">
                <rect x="915.201" y="38.003" width="4.241" height="30.229" style="fill:rgb(35,31,32);"/>
            </g>
            <g transform="matrix(1,0,0,1,935.4421,271.698)">
                <path d="M0,-30.209L3.846,-30.209L18.629,-6.84L18.13,-6.3L18.13,-30.209L22.329,-30.209L22.329,0L18.441,0L3.701,-23.015L4.2,-23.556L4.2,0L0,0L0,-30.209Z" style="fill:rgb(35,31,32);fill-rule:nonzero;"/>
            </g>
            <g transform="matrix(1,0,0,1,994.4369,257.7673)">
                <path d="M0,-2.327L0,2.954C0,5.199 -0.436,7.177 -1.31,8.889C-2.183,10.6 -3.42,11.925 -5.02,12.86C-6.621,13.795 -8.476,14.263 -10.582,14.263C-12.717,14.263 -14.591,13.824 -16.206,12.943C-17.821,12.062 -19.072,10.82 -19.959,9.211C-20.846,7.603 -21.289,5.739 -21.289,3.618L-21.289,-5.301C-21.289,-7.546 -20.852,-9.521 -19.98,-11.226C-19.106,-12.93 -17.869,-14.251 -16.268,-15.187C-14.667,-16.122 -12.814,-16.59 -10.707,-16.59C-8.975,-16.59 -7.377,-16.22 -5.915,-15.478C-4.453,-14.736 -3.23,-13.686 -2.245,-12.328C-1.261,-10.969 -0.596,-9.396 -0.249,-7.608L-4.844,-7.608C-5.093,-8.62 -5.517,-9.49 -6.112,-10.217C-6.709,-10.946 -7.408,-11.5 -8.212,-11.881C-9.016,-12.262 -9.847,-12.452 -10.707,-12.452C-11.954,-12.452 -13.049,-12.154 -13.992,-11.559C-14.934,-10.963 -15.662,-10.127 -16.175,-9.053C-16.688,-7.979 -16.944,-6.727 -16.944,-5.301L-16.944,3.618C-16.944,4.921 -16.681,6.061 -16.154,7.039C-15.627,8.016 -14.883,8.775 -13.919,9.315C-12.956,9.856 -11.844,10.126 -10.582,10.126C-9.335,10.126 -8.24,9.846 -7.297,9.285C-6.355,8.723 -5.628,7.908 -5.114,6.842C-4.602,5.773 -4.345,4.506 -4.345,3.037L-4.345,1.727L-10.478,1.727L-10.478,-2.327L0,-2.327Z" style="fill:rgb(35,31,32);fill-rule:nonzero;"/>
            </g>
            <g transform="matrix(1,0,0,1,1013.9304,241.5913)">
                <path d="M0,30.024C-1.303,29.746 -2.519,29.331 -3.649,28.775C-4.778,28.221 -5.835,27.528 -6.82,26.698L-4.179,23.454C-3.029,24.451 -1.761,25.2 -0.374,25.7C1.012,26.198 2.516,26.447 4.138,26.447C6.327,26.447 8.025,26.042 9.231,25.231C10.437,24.421 11.04,23.274 11.04,21.79L11.04,21.769C11.04,20.716 10.766,19.882 10.219,19.264C9.671,18.647 8.964,18.191 8.098,17.893C7.232,17.595 6.113,17.32 4.74,17.071C4.699,17.058 4.654,17.051 4.605,17.051C4.556,17.051 4.512,17.044 4.47,17.029L4.158,16.968C2.134,16.621 0.489,16.229 -0.78,15.792C-2.048,15.355 -3.132,14.559 -4.033,13.401C-4.934,12.244 -5.385,10.598 -5.385,8.463L-5.385,8.443C-5.385,6.572 -4.966,4.974 -4.127,3.651C-3.288,2.328 -2.066,1.318 -0.458,0.625C1.151,-0.068 3.084,-0.415 5.343,-0.415C6.424,-0.415 7.488,-0.296 8.534,-0.061C9.581,0.175 10.614,0.525 11.632,0.989C12.651,1.454 13.653,2.04 14.636,2.746L12.225,6.114C11.075,5.269 9.928,4.634 8.784,4.212C7.641,3.79 6.494,3.578 5.343,3.578C3.278,3.578 1.674,3.99 0.531,4.815C-0.613,5.64 -1.185,6.808 -1.185,8.317L-1.185,8.339C-1.185,9.378 -0.891,10.196 -0.301,10.792C0.288,11.389 1.022,11.828 1.902,12.112C2.782,12.397 4.006,12.692 5.572,12.995C5.628,13.01 5.679,13.02 5.728,13.027C5.776,13.034 5.828,13.044 5.884,13.059C5.953,13.073 6.029,13.086 6.113,13.1C6.196,13.114 6.272,13.127 6.341,13.142C8.171,13.515 9.699,13.959 10.926,14.472C12.152,14.984 13.178,15.814 14.003,16.956C14.827,18.1 15.239,19.663 15.239,21.644L15.239,21.686C15.239,23.53 14.803,25.107 13.93,26.417C13.056,27.726 11.792,28.724 10.135,29.41C8.479,30.096 6.479,30.439 4.138,30.439C2.682,30.439 1.303,30.3 0,30.024" style="fill:rgb(35,31,32);fill-rule:nonzero;"/>
            </g>
            <g transform="matrix(1,0,0,1,0,203.486)">
                <path d="M1048.102,40.477L1052.343,40.477L1052.343,68.232L1048.102,68.232L1048.102,40.477ZM1039.557,38.003L1060.889,38.003L1060.889,42.037L1039.557,42.037L1039.557,38.003Z" style="fill:rgb(35,31,32);fill-rule:nonzero;"/>
            </g>
            <g transform="matrix(1,0,0,1,1086.0259,246.1973)">
                <path d="M0,20.813C0.949,20.252 1.684,19.454 2.204,18.422C2.724,17.389 2.983,16.194 2.983,14.835L2.983,5.978C2.983,4.621 2.724,3.425 2.204,2.393C1.684,1.36 0.949,0.563 0,0.001C-0.949,-0.56 -2.048,-0.841 -3.295,-0.841C-4.543,-0.841 -5.641,-0.56 -6.59,0.001C-7.54,0.563 -8.274,1.36 -8.794,2.393C-9.314,3.425 -9.574,4.621 -9.574,5.978L-9.574,14.835C-9.574,16.194 -9.314,17.389 -8.794,18.422C-8.274,19.454 -7.54,20.252 -6.59,20.813C-5.641,21.374 -4.543,21.655 -3.295,21.655C-2.048,21.655 -0.949,21.374 0,20.813M-8.867,24.452C-10.475,23.529 -11.719,22.226 -12.599,20.542C-13.479,18.858 -13.919,16.907 -13.919,14.69L-13.919,6.124C-13.919,3.906 -13.479,1.956 -12.599,0.272C-11.719,-1.413 -10.475,-2.715 -8.867,-3.637C-7.259,-4.559 -5.402,-5.02 -3.295,-5.02C-1.188,-5.02 0.669,-4.559 2.277,-3.637C3.884,-2.715 5.128,-1.413 6.008,0.272C6.888,1.956 7.329,3.906 7.329,6.124L7.329,14.69C7.329,16.907 6.888,18.858 6.008,20.542C5.128,22.226 3.884,23.529 2.277,24.452C0.669,25.372 -1.188,25.833 -3.295,25.833C-5.402,25.833 -7.259,25.372 -8.867,24.452" style="fill:rgb(35,31,32);fill-rule:nonzero;"/>
            </g>
            <g transform="matrix(1,0,0,1,1108.316,271.698)">
                <path d="M0,-30.209L3.846,-30.209L18.629,-6.84L18.13,-6.3L18.13,-30.209L22.329,-30.209L22.329,0L18.441,0L3.701,-23.015L4.2,-23.556L4.2,0L0,0L0,-30.209Z" style="fill:rgb(35,31,32);fill-rule:nonzero;"/>
            </g>
            <g transform="matrix(-1,0,0,1,2346.331,212.051)">
                <rect x="1166.18" y="46.818" width="13.971" height="4.034" style="fill:rgb(35,31,32);"/>
            </g>
            <g transform="matrix(1,0,0,1,1215.644,242.466)">
                <path d="M0,28.588C-1.344,27.936 -2.438,27.021 -3.285,25.843L0.188,23.349C0.576,24.027 1.137,24.554 1.872,24.928C2.606,25.303 3.458,25.489 4.429,25.489C6.079,25.489 7.357,24.977 8.265,23.951C9.173,22.926 9.627,21.484 9.627,19.627L9.627,-0.977L13.868,-0.977L13.868,19.647C13.868,21.741 13.5,23.529 12.766,25.011C12.031,26.495 10.957,27.624 9.544,28.4C8.129,29.177 6.425,29.565 4.429,29.565C2.821,29.565 1.345,29.24 0,28.588" style="fill:rgb(35,31,32);fill-rule:nonzero;"/>
            </g>
            <g transform="matrix(1,0,0,1,0,203.486)">
                <path d="M1246.698,57.567L1262.602,57.567L1262.602,61.601L1246.698,61.601L1246.698,57.567ZM1252.707,38.003L1256.324,38.003L1267.469,68.232L1262.893,68.232L1254.515,43.845L1246.137,68.232L1241.563,68.232L1252.707,38.003Z" style="fill:rgb(35,31,32);fill-rule:nonzero;"/>
            </g>
            <g transform="matrix(1,0,0,1,1302.2844,271.718)">
                <path d="M0,-30.229L3.969,-30.229L3.969,0L-0.166,0L-0.166,-22.64L0.04,-21.31L-7.403,-4.199L-10.353,-4.199L-17.797,-20.894L-17.59,-22.64L-17.59,0L-21.727,0L-21.727,-30.229L-17.756,-30.229L-8.878,-10.269L0,-30.229Z" style="fill:rgb(35,31,32);fill-rule:nonzero;"/>
            </g>
            <g transform="matrix(1,0,0,1,0,203.486)">
                <path d="M1324.064,57.567L1339.968,57.567L1339.968,61.601L1324.064,61.601L1324.064,57.567ZM1330.072,38.003L1333.689,38.003L1344.834,68.232L1340.261,68.232L1331.881,43.845L1323.503,68.232L1318.929,68.232L1330.072,38.003Z" style="fill:rgb(35,31,32);fill-rule:nonzero;"/>
            </g>
            <g transform="matrix(-1,0,0,1,2720.089,203.486)">
                <rect x="1357.924" y="38.003" width="4.241" height="30.229" style="fill:rgb(35,31,32);"/>
            </g>
            <g transform="matrix(1,0,0,1,1382.5426,242.5693)">
                <path d="M0,28.068C-1.588,27.14 -2.818,25.823 -3.69,24.119C-4.564,22.413 -5,20.439 -5,18.193L-5,9.897C-5,7.652 -4.564,5.677 -3.69,3.972C-2.818,2.268 -1.588,0.947 0,0.011C1.587,-0.924 3.427,-1.393 5.52,-1.393C7.253,-1.393 8.846,-1.022 10.301,-0.28C11.756,0.462 12.973,1.511 13.95,2.87C14.928,4.229 15.589,5.802 15.936,7.59L11.59,7.59C11.327,6.648 10.887,5.806 10.27,5.064C9.654,4.322 8.929,3.751 8.098,3.349C7.266,2.946 6.406,2.746 5.52,2.746C4.286,2.746 3.205,3.044 2.277,3.639C1.347,4.235 0.627,5.071 0.115,6.145C-0.4,7.219 -0.656,8.471 -0.656,9.897L-0.656,18.193C-0.656,19.607 -0.4,20.854 0.115,21.935C0.627,23.016 1.347,23.851 2.277,24.441C3.205,25.029 4.286,25.324 5.52,25.324C6.421,25.324 7.283,25.137 8.108,24.763C8.932,24.388 9.654,23.834 10.27,23.099C10.887,22.365 11.327,21.491 11.59,20.48L15.936,20.48C15.589,22.267 14.924,23.841 13.94,25.2C12.956,26.557 11.736,27.608 10.281,28.349C8.825,29.09 7.238,29.461 5.52,29.461C3.427,29.461 1.587,28.997 0,28.068" style="fill:rgb(35,31,32);fill-rule:nonzero;"/>
            </g>
            <g transform="matrix(1,0,0,1,0,203.486)">
                <path d="M1414.001,57.567L1429.905,57.567L1429.905,61.601L1414.001,61.601L1414.001,57.567ZM1420.009,38.003L1423.626,38.003L1434.771,68.232L1430.197,68.232L1421.818,43.845L1413.439,68.232L1408.866,68.232L1420.009,38.003Z" style="fill:rgb(35,31,32);fill-rule:nonzero;"/>
            </g>
            <g transform="matrix(1,0,0,1,1485.1388,186.6264)">
                <path d="M0,-70.417L0.578,-70.417L34.776,0L18.592,0L9.536,-20.035C5.973,-28.031 2.793,-34.87 0.386,-41.615C-1.638,-36.7 -5.877,-26.874 -8.96,-20.035L-18.015,0L-34.102,0L0,-70.417Z" style="fill:rgb(35,31,32);fill-rule:nonzero;"/>
            </g>
            <g transform="matrix(1,0,0,1,339.1315,114.8589)">
                <path d="M0,72.059C-21.963,72.059 -37.28,56.356 -37.28,36.029C-37.28,15.8 -21.771,0 -0.288,0C10.019,0 17.534,2.889 21.483,4.72L21.483,18.398C16.955,16.279 10.019,13.584 0.675,13.584C-13.678,13.584 -22.348,23.699 -22.348,36.029C-22.348,48.551 -13.678,58.572 0,58.572C3.373,58.572 7.034,57.992 9.441,57.221L9.441,38.725L23.602,38.725L23.602,66.759C17.437,69.937 8.479,72.059 0,72.059" style="fill:rgb(35,31,32);fill-rule:nonzero;"/>
            </g>
            <g transform="matrix(1,0,0,1,412.3476,173.1421)">
                <path d="M0,-44.508L0,-23.796L10.597,-23.796C17.148,-23.796 21.676,-27.071 21.676,-34.102C21.676,-41.038 16.955,-44.508 10.212,-44.508L0,-44.508ZM9.826,-56.933C25.913,-56.933 36.606,-48.94 36.606,-34.102C36.606,-23.987 30.924,-17.342 23.409,-14.355L37.956,12.425L22.254,12.425L10.019,-11.851L0,-11.851L0,12.425L-14.545,12.425L-14.545,-56.933L9.826,-56.933Z" style="fill:rgb(35,31,32);fill-rule:nonzero;"/>
            </g>
            <g transform="matrix(1,0,0,1,515.7164,128.4425)">
                <path d="M0,44.891C12.523,44.891 21.386,34.874 21.386,22.446C21.386,10.115 12.523,0 0,0C-12.523,0 -21.386,10.115 -21.386,22.446C-21.386,34.874 -12.523,44.891 0,44.891M0,-13.584C20.903,-13.584 36.316,2.408 36.316,22.446C36.316,42.675 21,58.475 0,58.475C-21,58.475 -36.318,42.675 -36.318,22.446C-36.318,2.505 -21,-13.584 0,-13.584" style="fill:rgb(35,31,32);fill-rule:nonzero;"/>
            </g>
            <g transform="matrix(1,0,0,1,582.6683,118.8114)">
                <path d="M0,64.154L0,49.899C4.818,52.403 11.174,54.522 17.437,54.908C19.653,55.005 21.771,54.908 23.602,54.522C28.901,53.751 31.983,51.729 31.983,48.357C31.983,43.734 27.841,41.323 18.303,37.857C6.165,33.425 -0.964,28.319 -0.964,16.276C-0.964,3.946 9.248,-3.953 24.18,-3.953C31.115,-3.953 37.956,-2.411 42.291,-0.483L42.291,13.195C38.244,10.788 31.693,8.958 25.335,8.958C18.208,8.958 13.583,11.75 13.583,16.182C13.583,20.229 17.339,23.022 26.78,26.585C38.918,31.306 46.433,36.412 46.433,48.068C46.433,60.59 36.992,68.107 20.615,68.107C12.716,68.107 5.009,66.37 0,64.154" style="fill:rgb(35,31,32);fill-rule:nonzero;"/>
            </g>
            <g transform="matrix(1,0,0,1,688.3472,116.2094)">
                <path d="M0,70.417L-0.578,70.417L-34.776,0L-18.592,0L-9.536,20.035C-5.973,28.031 -2.793,34.87 -0.385,41.615C1.638,36.7 5.877,26.874 8.96,20.035L18.015,0L34.102,0L0,70.417Z" style="fill:rgb(35,31,32);fill-rule:nonzero;"/>
            </g>
            <g transform="matrix(1,0,0,1,751.9297,116.2099)">
                <path d="M0,69.357L0,0L44.602,0L44.602,12.424L14.835,12.424L14.835,28.225L40.075,28.225L40.075,40.17L14.835,40.17L14.835,56.932L46.047,56.932L46.047,69.357L0,69.357Z" style="fill:rgb(35,31,32);fill-rule:nonzero;"/>
            </g>
            <g transform="matrix(1,0,0,1,888.8224,115.1464)">
                <path d="M0,71.48L-38.053,34.971L-42.581,31.021L-42.581,70.421L-57.126,70.421L-57.126,0L-56.549,0L-18.593,36.513L-14.161,40.462L-14.161,1.063L0.481,1.063L0.481,71.48L0,71.48Z" style="fill:rgb(35,31,32);fill-rule:nonzero;"/>
            </g>
            <g transform="matrix(1,0,0,1,959.3397,128.4425)">
                <path d="M0,44.891C12.523,44.891 21.386,34.874 21.386,22.446C21.386,10.115 12.523,0 0,0C-12.523,0 -21.386,10.115 -21.386,22.446C-21.386,34.874 -12.523,44.891 0,44.891M0,-13.584C20.903,-13.584 36.316,2.408 36.316,22.446C36.316,42.675 21,58.475 0,58.475C-21,58.475 -36.318,42.675 -36.318,22.446C-36.318,2.505 -21,-13.584 0,-13.584" style="fill:rgb(35,31,32);fill-rule:nonzero;"/>
            </g>
            <g transform="matrix(1,0,0,1,1044.0182,173.1421)">
                <path d="M0,-44.508L0,-23.796L10.597,-23.796C17.148,-23.796 21.677,-27.071 21.677,-34.102C21.677,-41.038 16.957,-44.508 10.212,-44.508L0,-44.508ZM9.826,-56.933C25.915,-56.933 36.606,-48.94 36.606,-34.102C36.606,-23.987 30.924,-17.342 23.411,-14.355L37.957,12.425L22.254,12.425L10.021,-11.851L0,-11.851L0,12.425L-14.543,12.425L-14.543,-56.933L9.826,-56.933Z" style="fill:rgb(35,31,32);fill-rule:nonzero;"/>
            </g>
            <g transform="matrix(1,0,0,1,1191.6361,116.2094)">
                <path d="M0,70.417L-0.58,70.417L-34.776,0L-18.593,0L-9.538,20.035C-5.974,28.031 -2.793,34.87 -0.385,41.615C1.636,36.7 5.877,26.874 8.958,20.035L18.013,0L34.102,0L0,70.417Z" style="fill:rgb(35,31,32);fill-rule:nonzero;"/>
            </g>
            <g transform="matrix(1,0,0,1,0,-7.946)">
                <rect x="1255.217" y="124.155" width="14.835" height="69.357" style="fill:rgb(35,31,32);"/>
            </g>
            <g transform="matrix(1,0,0,1,1305.0225,118.8114)">
                <path d="M0,64.154L0,49.899C4.818,52.403 11.174,54.522 17.437,54.908C19.653,55.005 21.771,54.908 23.602,54.522C28.899,53.751 31.983,51.729 31.983,48.357C31.983,43.734 27.839,41.323 18.305,37.857C6.165,33.425 -0.962,28.319 -0.962,16.276C-0.962,3.946 9.25,-3.953 24.179,-3.953C31.115,-3.953 37.954,-2.411 42.289,-0.483L42.289,13.195C38.246,10.788 31.695,8.958 25.335,8.958C18.208,8.958 13.584,11.75 13.584,16.182C13.584,20.229 17.339,23.022 26.78,26.585C38.92,31.306 46.433,36.412 46.433,48.068C46.433,60.59 36.992,68.107 20.615,68.107C12.716,68.107 5.009,66.37 0,64.154" style="fill:rgb(35,31,32);fill-rule:nonzero;"/>
            </g>
            <g transform="matrix(1,0,0,1,1412.3374,173.1421)">
                <path d="M0,-44.508L0,12.425L-14.835,12.425L-14.835,-44.508L-34.199,-44.508L-34.199,-56.933L19.458,-56.933L19.458,-44.508L0,-44.508Z" style="fill:rgb(35,31,32);fill-rule:nonzero;"/>
            </g>
            <g transform="matrix(1,0,0,1,1545.2822,118.8114)">
                <path d="M0,64.154L0,49.899C4.818,52.403 11.174,54.522 17.437,54.908C19.653,55.005 21.771,54.908 23.602,54.522C28.899,53.751 31.983,51.729 31.983,48.357C31.983,43.734 27.84,41.323 18.305,37.857C6.165,33.425 -0.962,28.319 -0.962,16.276C-0.962,3.946 9.25,-3.953 24.179,-3.953C31.115,-3.953 37.954,-2.411 42.289,-0.483L42.289,13.195C38.246,10.788 31.695,8.958 25.335,8.958C18.208,8.958 13.584,11.75 13.584,16.182C13.584,20.229 17.339,23.022 26.78,26.585C38.92,31.306 46.433,36.412 46.433,48.068C46.433,60.59 36.992,68.107 20.615,68.107C12.716,68.107 5.009,66.37 0,64.154" style="fill:rgb(35,31,32);fill-rule:nonzero;"/>
            </g>
            <g transform="matrix(1,0,0,1,135.468,140.7294)">
                <path d="M0,142.641C-1.804,118.625 2.03,98.964 18.525,83.748C33.737,69.714 49.811,56.61 64.947,42.498C79.894,28.561 94.141,13.874 108.204,0C111.788,15.477 108.125,31.813 96.392,45.694C89.336,54.043 80.91,61.403 72.363,68.292C45.825,89.682 19.468,111.17 0,142.641" style="fill:rgb(35,31,32);fill-rule:nonzero;"/>
            </g>
            <g transform="matrix(1,0,0,1,21.6028,281.8558)">
                <path d="M0,-145.092C19.322,-111.343 51.265,-93.016 77.084,-68.498C89.678,-56.538 102.899,-45.235 105.832,-26.88C107.226,-18.155 107.678,-9.28 107.522,0C86.167,-33.374 55.11,-56.188 25.344,-80.419C9.01,-93.716 -2.58,-110.036 -1.997,-132.468C-1.943,-134.533 -1.814,-136.609 -1.525,-138.651C-1.289,-140.319 -0.762,-141.946 0,-145.092" style="fill:rgb(35,31,32);fill-rule:nonzero;"/>
            </g>
            <g transform="matrix(1,0,0,1,223.4039,227.5073)">
                <path d="M0,-116.04C4.355,-97.612 0.607,-82.416 -15.044,-70.217C-29.152,-59.222 -42.64,-47.324 -55.565,-34.95C-67.304,-23.711 -77.917,-11.295 -88.464,0C-89.545,-17.955 -84.77,-35.999 -70.502,-50.444C-60.602,-60.466 -49.42,-69.208 -39.084,-78.817C-26.05,-90.935 -13.294,-103.353 0,-116.04" style="fill:rgb(35,31,32);fill-rule:nonzero;"/>
            </g>
            <g transform="matrix(-0.800507,0.599324,0.599324,0.800507,155.43866,192.788193)">
                <path d="M43.741,-133.381C38.38,-106.354 33.504,-79.655 27.707,-53.157C22.28,-28.352 26.077,-6.022 43.741,15.051C39.069,-24.042 53.486,-58.934 59.764,-95.094C62.691,-111.957 54.023,-123.176 43.741,-133.381" style="fill:rgb(35,31,32);fill-rule:nonzero;"/>
            </g>
            <g transform="matrix(-0.848778,0.528749,0.528749,0.848778,144.370431,162.333409)">
                <path d="M24.599,-105.296C19.749,-84.189 15.093,-64.485 10.712,-44.72C6.168,-24.211 13.318,-6.471 24.599,10.471C22.372,-14.759 32.063,-37.315 39.189,-60.448C45.286,-80.239 41.839,-91.078 24.599,-105.296" style="fill:rgb(35,31,32);fill-rule:nonzero;"/>
            </g>
            <g transform="matrix(1,0,0,1,196.591,183.0097)">
                <path d="M0,-96.116C7.044,-77.196 4.796,-66.141 -8.984,-53.493C-18.367,-44.88 -28.814,-37.372 -37.749,-28.344C-46.298,-19.705 -53.509,-9.74 -61.605,0C-62.294,-19.766 -58.382,-38.035 -44.039,-52.683C-29.852,-67.17 -15.181,-81.183 0,-96.116" style="fill:rgb(35,31,32);fill-rule:nonzero;"/>
            </g>
            <g transform="matrix(1,0,0,1,132.1397,26.3512)">
                <path d="M0,70.602C-4.727,63.864 -9.344,57.026 -14.226,50.381C-23.164,38.215 -23.218,32.783 -14.446,20.698C-9.408,13.759 -4.573,6.673 0.11,0C4.706,6.583 9.699,13.853 14.815,21.035C23.136,32.718 23.116,38.159 14.636,49.967C9.643,56.92 4.729,63.93 0,70.602" style="fill:rgb(35,31,32);fill-rule:nonzero;"/>
            </g>
            <g transform="matrix(1,0,0,1,95.5877,135.7916)">
                <path d="M0,-68.516C21.565,-49.845 35.523,-28.44 33.954,0C23.641,-10.907 12.969,-21.774 2.786,-33.081C-7.276,-44.255 -8.02,-54.989 0,-68.516" style="fill:rgb(35,31,32);fill-rule:nonzero;"/>
            </g>
            <g transform="matrix(1,0,0,1,169.3214,134.0651)">
                <path d="M0,-66.43C7.923,-50.826 5.823,-40.147 -6.546,-27.767C-15.739,-18.566 -24.544,-8.976 -33.102,0C-39.751,-15.907 -24.397,-48.342 0,-66.43" style="fill:rgb(35,31,32);fill-rule:nonzero;"/>
            </g>
        </g>
    </g>
</svg>
