<svg width="100%" height="100%" viewBox="0 0 6714 4038" version="1.1" xmlns="http://www.w3.org/2000/svg" xmlns:xlink="http://www.w3.org/1999/xlink" xml:space="preserve" style="fill-rule:evenodd;clip-rule:evenodd;stroke-linejoin:round;stroke-miterlimit:2;">
    <g id="Page-1" transform="matrix(4.166667,0,0,3.683205,0,0)">
        <rect x="0" y="0" width="1611.3" height="1096.26" style="fill:none;"></rect>
        <g id="Layer-1" transform="matrix(1,0,0,1.131261,0,0)">
            <g transform="matrix(1,0,0,1,1431.4512,917.2564)">
                <path d="M0,-82.061L0.674,-82.061L40.526,0L21.666,0L11.113,-23.348C6.96,-32.666 3.254,-40.636 0.449,-48.497C-1.909,-42.769 -6.849,-31.318 -10.441,-23.348L-20.994,0L-39.741,0L0,-82.061Z" style="fill:rgb(197,132,42);fill-rule:nonzero;"></path>
            </g>
            <g transform="matrix(1,0,0,1,95.9488,833.6207)">
                <path d="M0,83.975C-25.594,83.975 -43.445,65.675 -43.445,41.988C-43.445,18.413 -25.371,0 -0.336,0C11.676,0 20.433,3.368 25.035,5.501L25.035,21.441C19.759,18.972 11.676,15.831 0.787,15.831C-15.94,15.831 -26.043,27.618 -26.043,41.988C-26.043,56.58 -15.94,68.258 0,68.258C3.93,68.258 8.197,67.582 11.002,66.683L11.002,45.129L27.505,45.129L27.505,77.798C20.32,81.502 9.88,83.975 0,83.975" style="fill:rgb(197,132,42);fill-rule:nonzero;"></path>
            </g>
            <g transform="matrix(1,0,0,1,181.2713,901.5424)">
                <path d="M0,-51.868L0,-27.731L12.35,-27.731C19.984,-27.731 25.26,-31.548 25.26,-39.741C25.26,-47.824 19.759,-51.868 11.9,-51.868L0,-51.868ZM11.451,-66.347C30.198,-66.347 42.659,-57.033 42.659,-39.741C42.659,-27.954 36.037,-20.21 27.28,-16.729L44.232,14.479L25.934,14.479L11.676,-13.811L0,-13.811L0,14.479L-16.95,14.479L-16.95,-66.347L11.451,-66.347Z" style="fill:rgb(197,132,42);fill-rule:nonzero;"></path>
            </g>
            <g transform="matrix(1,0,0,1,301.7325,849.452)">
                <path d="M0,52.313C14.594,52.313 24.922,40.639 24.922,26.156C24.922,11.787 14.594,0 0,0C-14.594,0 -24.922,11.787 -24.922,26.156C-24.922,40.639 -14.594,52.313 0,52.313M0,-15.831C24.36,-15.831 42.321,2.805 42.321,26.156C42.321,49.731 24.473,68.144 0,68.144C-24.473,68.144 -42.323,49.731 -42.323,26.156C-42.323,2.918 -24.473,-15.831 0,-15.831" style="fill:rgb(197,132,42);fill-rule:nonzero;"></path>
            </g>
            <g transform="matrix(1,0,0,1,379.7551,838.2266)">
                <path d="M0,74.763L0,58.151C5.614,61.069 13.022,63.538 20.32,63.988C22.902,64.101 25.371,63.988 27.505,63.538C33.679,62.64 37.272,60.284 37.272,56.354C37.272,50.966 32.445,48.157 21.33,44.117C7.185,38.952 -1.123,33.002 -1.123,18.969C-1.123,4.599 10.777,-4.606 28.178,-4.606C36.26,-4.606 44.232,-2.808 49.284,-0.562L49.284,15.378C44.568,12.573 36.934,10.44 29.524,10.44C21.218,10.44 15.829,13.694 15.829,18.859C15.829,23.575 20.206,26.829 31.208,30.982C45.353,36.483 54.11,42.433 54.11,56.018C54.11,70.61 43.109,79.369 24.023,79.369C14.819,79.369 5.837,77.345 0,74.763" style="fill:rgb(197,132,42);fill-rule:nonzero;"></path>
            </g>
            <g transform="matrix(1,0,0,1,502.9081,835.1949)">
                <path d="M0,82.061L-0.674,82.061L-40.526,0L-21.666,0L-11.113,23.348C-6.96,32.666 -3.254,40.636 -0.449,48.497C1.909,42.769 6.849,31.318 10.441,23.348L20.994,0L39.741,0L0,82.061Z" style="fill:rgb(197,132,42);fill-rule:nonzero;"></path>
            </g>
            <g transform="matrix(1,0,0,1,577.0042,835.1953)">
                <path d="M0,80.826L0,0L51.977,0L51.977,14.479L17.288,14.479L17.288,32.892L46.701,32.892L46.701,46.813L17.288,46.813L17.288,66.347L53.661,66.347L53.661,80.826L0,80.826Z" style="fill:rgb(197,132,42);fill-rule:nonzero;"></path>
            </g>
            <g transform="matrix(1,0,0,1,736.5323,833.9569)">
                <path d="M0,83.299L-44.345,40.753L-49.621,36.151L-49.621,82.064L-66.572,82.064L-66.572,0L-65.899,0L-21.668,42.55L-16.503,47.152L-16.503,1.238L0.561,1.238L0.561,83.299L0,83.299Z" style="fill:rgb(197,132,42);fill-rule:nonzero;"></path>
            </g>
            <g transform="matrix(1,0,0,1,818.7099,849.452)">
                <path d="M0,52.313C14.594,52.313 24.922,40.639 24.922,26.156C24.922,11.787 14.594,0 0,0C-14.594,0 -24.922,11.787 -24.922,26.156C-24.922,40.639 -14.594,52.313 0,52.313M0,-15.831C24.359,-15.831 42.321,2.805 42.321,26.156C42.321,49.731 24.473,68.144 0,68.144C-24.473,68.144 -42.323,49.731 -42.323,26.156C-42.323,2.918 -24.473,-15.831 0,-15.831" style="fill:rgb(197,132,42);fill-rule:nonzero;"></path>
            </g>
            <g transform="matrix(1,0,0,1,917.3901,901.5424)">
                <path d="M0,-51.868L0,-27.731L12.35,-27.731C19.984,-27.731 25.262,-31.548 25.262,-39.741C25.262,-47.824 19.761,-51.868 11.9,-51.868L0,-51.868ZM11.451,-66.347C30.2,-66.347 42.659,-57.033 42.659,-39.741C42.659,-27.954 36.037,-20.21 27.282,-16.729L44.234,14.479L25.934,14.479L11.678,-13.811L0,-13.811L0,14.479L-16.948,14.479L-16.948,-66.347L11.451,-66.347Z" style="fill:rgb(197,132,42);fill-rule:nonzero;"></path>
            </g>
            <g transform="matrix(1,0,0,1,1089.4171,835.1949)">
                <path d="M0,82.061L-0.676,82.061L-40.526,0L-21.668,0L-11.115,23.348C-6.962,32.666 -3.255,40.636 -0.449,48.497C1.907,42.769 6.849,31.318 10.439,23.348L20.992,0L39.741,0L0,82.061Z" style="fill:rgb(197,132,42);fill-rule:nonzero;"></path>
            </g>
            <g transform="matrix(1,0,0,1,0,654.956)">
                <rect x="1163.511" y="180.239" width="17.288" height="80.826" style="fill:rgb(197,132,42);"></rect>
            </g>
            <g transform="matrix(1,0,0,1,1221.552,838.2266)">
                <path d="M0,74.763L0,58.151C5.614,61.069 13.022,63.538 20.32,63.988C22.902,64.101 25.371,63.988 27.505,63.538C33.677,62.64 37.272,60.284 37.272,56.354C37.272,50.966 32.443,48.157 21.332,44.117C7.185,38.952 -1.121,33.002 -1.121,18.969C-1.121,4.599 10.779,-4.606 28.177,-4.606C36.26,-4.606 44.23,-2.808 49.282,-0.562L49.282,15.378C44.57,12.573 36.936,10.44 29.524,10.44C21.218,10.44 15.831,13.694 15.831,18.859C15.831,23.575 20.207,26.829 31.208,30.982C45.355,36.483 54.11,42.433 54.11,56.018C54.11,70.61 43.109,79.369 24.024,79.369C14.819,79.369 5.837,77.345 0,74.763" style="fill:rgb(197,132,42);fill-rule:nonzero;"></path>
            </g>
            <g transform="matrix(1,0,0,1,1346.6117,901.5424)">
                <path d="M0,-51.868L0,14.479L-17.288,14.479L-17.288,-51.868L-39.854,-51.868L-39.854,-66.347L22.676,-66.347L22.676,-51.868L0,-51.868Z" style="fill:rgb(197,132,42);fill-rule:nonzero;"></path>
            </g>
            <g transform="matrix(1,0,0,1,1501.5394,838.2266)">
                <path d="M0,74.763L0,58.151C5.614,61.069 13.022,63.538 20.32,63.988C22.902,64.101 25.371,63.988 27.505,63.538C33.677,62.64 37.272,60.284 37.272,56.354C37.272,50.966 32.443,48.157 21.332,44.117C7.185,38.952 -1.121,33.002 -1.121,18.969C-1.121,4.599 10.779,-4.606 28.177,-4.606C36.26,-4.606 44.23,-2.808 49.282,-0.562L49.282,15.378C44.57,12.573 36.936,10.44 29.524,10.44C21.218,10.44 15.831,13.694 15.831,18.859C15.831,23.575 20.206,26.829 31.208,30.982C45.355,36.483 54.11,42.433 54.11,56.018C54.11,70.61 43.109,79.369 24.024,79.369C14.819,79.369 5.837,77.345 0,74.763" style="fill:rgb(197,132,42);fill-rule:nonzero;"></path>
            </g>
            <g transform="matrix(1,0,0,1,811.8971,316.3627)">
                <path d="M0,350.653C-4.435,291.614 4.991,243.283 45.54,205.876C82.936,171.377 122.45,139.165 159.658,104.472C196.402,70.211 231.425,34.105 265.996,0C274.807,38.046 265.802,78.205 236.961,112.33C219.614,132.854 198.901,150.945 177.889,167.882C112.651,220.463 47.859,273.288 0,350.653" style="fill:rgb(197,132,42);fill-rule:nonzero;"></path>
            </g>
            <g transform="matrix(1,0,0,1,531.9833,663.2921)">
                <path d="M0,-356.678C47.498,-273.714 126.025,-228.66 189.494,-168.387C220.454,-138.986 252.955,-111.201 260.165,-66.077C263.592,-44.63 264.703,-22.812 264.321,0C211.824,-82.043 135.475,-138.125 62.304,-197.693C22.15,-230.381 -6.342,-270.5 -4.909,-325.646C-4.777,-330.722 -4.459,-335.824 -3.749,-340.845C-3.168,-344.945 -1.872,-348.944 0,-356.678" style="fill:rgb(197,132,42);fill-rule:nonzero;"></path>
            </g>
            <g transform="matrix(1,0,0,1,1028.0693,529.6889)">
                <path d="M0,-285.261C10.707,-239.959 1.492,-202.604 -36.984,-172.615C-71.664,-145.585 -104.822,-116.336 -136.595,-85.917C-165.454,-58.289 -191.543,-27.767 -217.471,0C-220.127,-44.14 -208.389,-88.497 -173.314,-124.007C-148.977,-148.645 -121.488,-170.134 -96.081,-193.755C-64.037,-223.545 -32.68,-254.072 0,-285.261" style="fill:rgb(197,132,42);fill-rule:nonzero;"></path>
            </g>
            <g transform="matrix(-0.800507,0.599323,0.599323,0.800507,860.990697,444.338791)">
                <path d="M107.529,-327.889C94.35,-261.45 82.362,-195.816 68.111,-130.676C54.771,-69.698 64.105,-14.806 107.529,37.001C96.04,-59.103 131.484,-144.878 146.917,-233.767C154.114,-275.223 132.806,-302.803 107.529,-327.889" style="fill:rgb(197,132,42);fill-rule:nonzero;"></path>
            </g>
            <g transform="matrix(-0.84878,0.528747,0.528747,0.84878,833.781667,369.471716)">
                <path d="M60.473,-258.849C48.547,-206.961 37.101,-158.523 26.334,-109.935C15.162,-59.516 32.741,-15.906 60.473,25.741C54.995,-36.283 78.82,-91.732 96.338,-148.599C111.324,-197.251 102.853,-223.896 60.473,-258.849" style="fill:rgb(197,132,42);fill-rule:nonzero;"></path>
            </g>
            <g transform="matrix(1,0,0,1,962.1553,420.2998)">
                <path d="M0,-236.281C17.317,-189.77 11.789,-162.595 -22.086,-131.5C-45.151,-110.329 -70.834,-91.872 -92.798,-69.679C-113.815,-48.441 -131.54,-23.945 -151.444,0C-153.137,-48.591 -143.521,-93.501 -108.26,-129.509C-73.385,-165.123 -37.321,-199.572 0,-236.281" style="fill:rgb(197,132,42);fill-rule:nonzero;"></path>
            </g>
            <g transform="matrix(1,0,0,1,803.7153,35.1869)">
                <path d="M0,173.561C-11.62,156.998 -22.971,140.186 -34.972,123.851C-56.943,93.944 -57.078,80.592 -35.511,50.882C-23.128,33.823 -11.242,16.404 0.27,0C11.569,16.184 23.844,34.054 36.419,51.71C56.875,80.431 56.826,93.806 35.981,122.833C23.705,139.926 11.624,157.159 0,173.561" style="fill:rgb(197,132,42);fill-rule:nonzero;"></path>
            </g>
            <g transform="matrix(1,0,0,1,713.8597,304.2246)">
                <path d="M0,-168.433C53.014,-122.534 87.326,-69.915 83.47,0C58.116,-26.813 31.882,-53.527 6.85,-81.323C-17.886,-108.792 -19.715,-135.178 0,-168.433" style="fill:rgb(197,132,42);fill-rule:nonzero;"></path>
            </g>
            <g transform="matrix(1,0,0,1,895.1187,299.9795)">
                <path d="M0,-163.304C19.478,-124.944 14.316,-98.694 -16.091,-68.26C-38.691,-45.64 -60.336,-22.065 -81.373,0C-97.721,-39.105 -59.976,-118.837 0,-163.304" style="fill:rgb(197,132,42);fill-rule:nonzero;"></path>
            </g>
        </g>
    </g>
</svg>
