<svg id="Capa_2" data-name="Capa 2" xmlns="http://www.w3.org/2000/svg" viewBox="0 0 175.04 139.28">
  <defs>
    <style>
      .cls-1 {
        fill: #27a6df;
      }

      .cls-2 {
        fill: #8abe26;
      }
    </style>
  </defs>
  <g id="Layer_1" data-name="Layer 1">
    <g>
      <path class="cls-1" d="M101.43,54.34c-1.31-2.02-3.33-3.62-6.02-4.82h0c-.12-.05-.24-.11-.36-.16-.3-.14-.6-.26-.92-.4-2.94-1.09-9.31-2.91-9.31-2.91,0,0-24.66-6.74-39.43-19.35h0s-.07-.05-.12-.05c-.08-.01-.17.06-.17.16t-.02.02c.47,1.82,4.11,13.78,23.2,24.4,0,0,6.45,3.72,22.69,9.4,0,0,7.66,2.65,8.18,6.77h.01c0,.36.28.64.66.68.17,0,.35-.05.48-.16.85-.78,1.54-1.69,2.02-2.73.56-1.2.88-2.58.99-4.17.12-2.33-.49-4.56-1.85-6.67"></path>
      <path class="cls-1" d="M1.56,113.35c.98,2.91,4.15,9.79,10.72,9.79,4.72,0,7.69-3.15,7.69-7.99,0-5.27-4.03-7.44-8.01-9.36-2.05-.99-10.41-3.91-10.41-11.34,0-6.15,4.64-11.42,12.77-11.42,1.73,0,3.83.38,5.14.81.81.25,1.67.55,2.36.68.24,2.17.62,4.65,1.12,8.36l-1.56.18c-1.05-3.66-2.78-7.99-8.43-7.99-4.4,0-6.7,3.22-6.7,6.87,0,4.6,3.29,6.64,8.01,8.74,4.09,1.81,10.61,4.35,10.61,12.04,0,7.2-5.9,12.47-13.77,12.47-2.24,0-4.34-.43-5.89-.93-1.55-.49-2.67-1-3.41-1.3-.49-1.62-1.18-6.02-1.8-9.37l1.56-.25Z"></path>
      <path class="cls-1" d="M53.28,121.98l-.56-1.37c-1.11.56-2.17.81-2.67.81-.93,0-1.73-1.06-1.73-3.35v-13.96c0-2.23-.31-4.4-2.36-6.02-1.24-.92-3.16-1.48-4.89-1.48-4.41.81-8.07,3.16-9.56,4.28-1.36.99-2.1,1.86-2.1,2.67,0,1.11,1.68,2.1,2.67,2.1.68,0,1.24-.44,1.42-1.17.68-2.61,1.99-5.21,5.03-5.21,3.28,0,5.08,2.04,5.08,5.89v2.11c-1.86,1.3-6.94,3.1-9.99,4.34-3.23,1.3-4.71,3.42-4.71,6.26,0,3.41,2.91,7.14,7.44,7.14,1.3,0,4.65-2.36,7.25-4.04.37,1.55,1.31,3.67,3.41,4.04l6.27-3.04ZM43.6,119.19c-1.68,1.3-3.97,2.41-5.39,2.41-1.86,0-4.09-1.55-4.09-4.83,0-2.24,1.05-3.48,3.22-4.66,1.19-.62,4.91-2.29,6.26-2.84v9.92Z"></path>
      <path class="cls-1" d="M68.1,136.37c-4.84,0-8.24-2.6-8.24-6.39,0-1.98,1.06-3.41,2.28-4.45,1.25-1,2.93-1.49,5.16-1.49,2.48,0,4.53.12,6.33.79,1.86.75,3.16,2.29,3.16,5.03s-2.29,6.51-8.69,6.51M78.53,100.64c.86-.37,2.17-1.98,2.66-2.86l-.3-.49c-2.73.37-5.46.68-8.32.8-1.55-.92-3.47-1.48-5.7-1.48-4.6,0-10.79,3.28-10.79,10.11,0,3.83,2.61,6.88,6.32,8.06-1.3,1.11-3.97,2.72-6.07,3.47-.06.62.06,1.54.56,2.42.82,1.36,2.61,2.72,5.03,3.28-1.8,1.18-4.77,3.41-5.59,4.34-.75.81-1.23,1.85-1.23,3.35,0,3.36,3.28,7.63,10.84,7.63s14.76-5.83,14.76-12.27c0-6.08-5.47-6.96-8.38-6.96-2.36,0-4.96.08-6.82.08-2.85,0-3.97-.88-3.97-2.12,0-.93,1.67-2.16,3.04-2.66.93.06,1.43.06,1.8.06,4.89,0,10.66-3.23,10.66-9.79,0-1.81-.68-3.78-1.99-5.21l3.48.24ZM66.3,98.35c3.6,0,5.83,3.67,5.83,8.24,0,4.91-2.6,7.08-5.09,7.08-3.54,0-5.89-3.42-5.89-8.25s2.6-7.07,5.14-7.07"></path>
      <path class="cls-1" d="M92.54,118.69c0,3.48.31,3.79,4.47,4.16v1.43h-13.72v-1.43c4.1-.37,4.41-.67,4.41-4.16v-14.32c0-3.73-.12-3.8-4.21-4.29v-1.12c2.85-.61,5.89-1.35,9.05-2.47v22.19Z"></path>
      <path class="cls-1" d="M122.42,118.31c-2.54,3.86-6.44,6.71-9.97,6.71-7.88,0-12.85-6.26-12.85-13.09,0-4.65,2.23-8.81,5.64-11.6,3.72-3.04,8.02-3.71,10.12-3.71,1.43,0,4.09.56,5.46,1.66.43.38.62.75.62,1.37,0,1.36-1.25,2.73-2.05,2.73-.25,0-.49-.07-.93-.43-2.43-2.18-4.46-2.67-6.45-2.67-3.05,0-7.45,2.73-7.45,9.85,0,9.38,6.64,11.85,9.69,11.85,2.72,0,4.08-.62,7.37-3.47l.79.8Z"></path>
      <path class="cls-1" d="M137.81,125.02c6.27,0,13.47-4.97,13.47-14.64,0-7.76-5.65-13.77-13.53-13.77-5.64,0-13.7,4.53-13.7,14.94,0,6.44,5.02,13.46,13.76,13.46M138.51,123.15c-5.4,0-8.81-6.01-8.81-13.88,0-6.51,3.16-10.79,7.32-10.79,5.64,0,8.61,6.38,8.61,13.26,0,8.39-3.28,11.41-7.12,11.41"></path>
      <path class="cls-1" d="M164.12,118.69c0,3.48.31,3.79,5.15,4.16v1.43h-14.26v-1.43c3.96-.37,4.28-.67,4.28-4.16v-14.32c0-3.73-.14-3.8-4.23-4.29v-1.12c2.92-.61,5.96-1.35,9.06-2.47v6.38h.11c1.42-2.42,4.48-6.26,7.46-6.26,1.85,0,3.34,1.67,3.34,2.91,0,1.05-.68,2.49-1.98,3.04-.69.31-1.24.19-1.56-.06-.86-.74-1.54-1.3-2.66-1.3-1.48,0-3.09,1.18-4.71,4.41v13.08Z"></path>
      <path class="cls-2" d="M96.69,33.2c-1.11-.48-2.17-.99-3.18-1.48l-5.74-3.39c-3.81-2.81-6.11-6.29-6.11-11.54,0-6.88,4.3-12.94,12.58-12.94,9.89,0,13.39,7.11,15.43,13.64h0c.15.7.78,1.25,1.54,1.25.09,0,.19-.02.28-.04h.03c.71-.15,1.24-.78,1.24-1.54,0-.07,0-.14-.02-.2h.03c-.58-4.33-1.07-7.73-1.46-10.68-.51-2.75-2.09-3.79-2.88-4.13-.67-.2-1.34-.43-1.99-.63-2.43-.82-6.41-1.51-9.66-1.51-14.77,0-23.45,9.29-23.96,20.35l-31-14.06s-4.16,19.04,35.36,32.81c0,0,8.96,3.02,13.91,4.42,0,0,7.25,2.15,11.44,5.54,2.9,2.73,4.85,6.25,4.85,11.28,0,6.16-2.57,10.86-6.97,13.26l.02.03c-.69.29-1.15.96-1.15,1.72,0,1.04.85,1.89,1.88,1.89.27,0,.51-.06.72-.15h.02c8.86-3.58,14.7-11.48,14.7-21.3,0-14.44-12.24-19.22-19.91-22.6"></path>
    </g>
  </g>
</svg>